HIERARCHY
ROOT Hips
{
	OFFSET 0.000000 0.000000 0.000000
	CHANNELS 6 Xposition Yposition Zposition Zrotation Yrotation Xrotation 
	JOINT LHipJoint
	{
		OFFSET 0.000000 0.000000 0.000000
		CHANNELS 3 Zrotation Yrotation Xrotation
		JOINT LeftUpLeg
		{
			OFFSET 1.363060 -1.794630 0.839290
			CHANNELS 3 Zrotation Yrotation Xrotation
			JOINT LeftLeg
			{
				OFFSET 2.448110 -6.726130 0.000000
				CHANNELS 3 Zrotation Yrotation Xrotation
				JOINT LeftFoot
				{
					OFFSET 2.562200 -7.039590 0.000000
					CHANNELS 3 Zrotation Yrotation Xrotation
					JOINT LeftToeBase
					{
						OFFSET 0.157640 -0.433110 2.322550
						CHANNELS 3 Zrotation Yrotation Xrotation
						End Site
						{
							OFFSET 0.000000 0.000000 0.000000
						}
					}
				}
			}
		}
	}
	JOINT RHipJoint
	{
		OFFSET 0.000000 0.000000 0.000000
		CHANNELS 3 Zrotation Yrotation Xrotation
		JOINT RightUpLeg
		{
			OFFSET -1.305520 -1.794630 0.839290
			CHANNELS 3 Zrotation Yrotation Xrotation
			JOINT RightLeg
			{
				OFFSET -2.542530 -6.985550 0.000000
				CHANNELS 3 Zrotation Yrotation Xrotation
				JOINT RightFoot
				{
					OFFSET -2.568260 -7.056230 0.000000
					CHANNELS 3 Zrotation Yrotation Xrotation
					JOINT RightToeBase
					{
						OFFSET -0.164730 -0.452590 2.363150
						CHANNELS 3 Zrotation Yrotation Xrotation
						End Site
						{
							OFFSET 0.000000 0.000000 0.000000
						}
					}
				}
			}
		}
	}
}
MOTION
Frames: 16
Frame Time: 0.008333
2.810616 16.411657 1.367453 -175.994730 -68.607220 -144.323664 -9.370246 3.034545 -1.987872 -31.708300 18.377231 -70.217605 -5.619530 4.508939 39.461318 2.571632 8.234072 -16.925255 -1.209200 0.000000 -38.055900 8.238902 1.249057 3.085758 9.048000 -2.682759 -67.084602 4.652254 -2.623530 30.224591 2.065058 10.796650 0.252715 1.391300 -0.000000 -71.202400
2.823912 16.411637 1.364732 -176.521538 -68.351096 -143.754478 -9.348273 3.028542 -2.056530 -31.844050 18.241611 -70.100854 -5.605254 4.492523 39.416978 2.630376 8.536195 -16.925146 -1.238000 -0.000000 -37.872900 8.256418 1.306009 3.039154 8.881872 -2.794181 -67.244501 4.660872 -2.644494 30.213638 2.117166 11.102872 0.328818 1.462500 0.000000 -71.258300
2.837536 16.410436 1.362331 -177.021692 -68.120276 -143.207017 -9.331181 3.024661 -2.113309 -31.958301 18.076414 -69.999295 -5.588959 4.479006 39.389851 2.690341 8.835047 -16.937569 -1.268099 -0.000000 -37.666400 8.270582 1.364006 2.997487 8.713998 -2.892959 -67.420039 4.664055 -2.666756 30.234461 2.161226 11.365207 0.386766 1.523500 -0.000000 -71.295100
2.850781 16.408069 1.360378 -177.488342 -67.909923 -142.684146 -9.319598 3.024166 -2.156889 -32.059471 17.889068 -69.925454 -5.572824 4.469521 39.378987 2.749587 9.119580 -16.963722 -1.298900 -0.000001 -37.442600 8.279845 1.420869 2.964847 8.546889 -2.970010 -67.613874 4.662840 -2.689084 30.279744 2.197624 11.581985 0.429087 1.573900 0.000000 -71.313400
2.862699 16.404501 1.359024 -177.907751 -67.717371 -142.190864 -9.313721 3.027790 -2.187460 -32.155138 17.687972 -69.888804 -5.558848 4.464866 39.383499 2.806075 9.379122 -17.003903 -1.329700 -0.000000 -37.210600 8.283582 1.474770 2.944003 8.382065 -3.019528 -67.827949 4.658604 -2.710607 30.342080 2.226927 11.753698 0.458162 1.613900 -0.000000 -71.315300
2.872847 16.399747 1.358288 -178.276913 -67.539496 -141.727366 -9.313473 3.035952 -2.205966 -32.251593 17.480726 -69.897364 -5.548515 4.466100 39.404321 2.858064 9.605073 -17.058340 -1.360000 0.000000 -36.978600 8.281203 1.524640 2.935946 8.222237 -3.038009 -68.063734 4.652231 -2.730975 30.418001 2.249894 11.883069 0.475519 1.644000 0.000000 -71.303200
2.880825 16.393796 1.358183 -178.592167 -67.375017 -141.293825 -9.318564 3.048916 -2.214010 -32.354386 17.274212 -69.955184 -5.542863 4.473848 39.442153 2.904040 9.790961 -17.125677 -1.389000 -0.000000 -36.756799 8.272780 1.569879 2.940648 8.068702 -3.026085 -68.321971 4.644687 -2.750249 30.505246 2.267405 11.974720 0.481974 1.665200 0.000000 -71.280000
2.886609 16.386633 1.358616 -178.858446 -67.223735 -140.886015 -9.328380 3.066555 -2.213420 -32.467290 17.072554 -70.064047 -5.542268 4.488583 39.499222 2.942930 9.932569 -17.205039 -1.416500 0.000001 -36.551100 8.258651 1.610287 2.957030 7.923193 -2.986790 -68.604015 4.636611 -2.769064 30.604870 2.280424 12.034647 0.477240 1.678400 -0.000001 -71.248500
2.890244 16.378286 1.359501 -179.081339 -67.087537 -140.498978 -9.342091 3.088556 -2.206079 -32.593220 16.878132 -70.221753 -5.546584 4.510143 39.576591 2.974195 10.029084 -17.293916 -1.441800 0.000000 -36.367799 8.239738 1.645907 2.983350 7.786325 -2.926671 -68.910225 4.628589 -2.788450 30.719226 2.289921 12.069777 0.460579 1.685000 -0.000000 -71.211500
2.891983 16.368816 1.360535 -179.274993 -66.967953 -140.121165 -9.358645 3.114176 -2.194041 -32.733451 16.690547 -70.423140 -5.555339 4.537978 39.673996 2.997642 10.081836 -17.388883 -1.464400 -0.000001 -36.212400 8.217258 1.677410 3.017035 7.657803 -2.854147 -69.240550 4.620942 -2.809570 30.850796 2.296874 12.087465 0.431547 1.686200 -0.000000 -71.172199
2.892303 16.358295 1.361615 -179.451423 -66.868217 -139.745751 -9.377077 3.142802 -2.178779 -32.888164 16.507959 -70.660930 -5.567478 4.571320 39.791893 3.013694 10.094936 -17.487198 -1.484199 0.000000 -36.085200 8.192458 1.705633 3.055360 7.537078 -2.779114 -69.594160 4.613810 -2.833808 31.004199 2.302119 12.094774 0.388396 1.683400 0.000001 -71.132300
2.891589 16.346810 1.362565 -179.622551 -66.790564 -139.364410 -9.396699 3.173585 -2.161796 -33.055424 16.327238 -70.926111 -5.581878 4.609241 39.929215 3.023054 10.074020 -17.585596 -1.500900 0.000000 -35.986300 8.166429 1.731769 3.095176 7.424049 -2.710620 -69.969838 4.607341 -2.862317 31.182536 2.306387 12.097863 0.330577 1.677600 -0.000001 -71.093600
2.890536 16.334468 1.363073 -179.807650 -66.735262 -138.964391 -9.416837 3.205759 -2.144152 -33.233358 16.144275 -71.209926 -5.597414 4.650808 40.084578 3.026767 10.025906 -17.681849 -1.514599 0.000000 -35.912200 8.140144 1.757270 3.133478 7.317401 -2.657638 -70.365852 4.601233 -2.896104 31.389358 2.310262 12.101939 0.257311 1.669700 0.000001 -71.056800
2.889461 16.321348 1.363013 179.984161 -66.702560 -138.538232 -9.437245 3.238553 -2.126760 -33.418656 15.955349 -71.503571 -5.613102 4.694980 40.255486 3.025962 9.957570 -17.773837 -1.525499 0.000000 -35.858800 8.114323 1.783310 3.167604 7.216690 -2.626444 -70.779890 4.595435 -2.935782 31.626204 2.314112 12.110499 0.168606 1.660600 0.000000 -71.022400
2.888848 16.307512 1.362308 179.743997 -66.692644 -138.082057 -9.457733 3.271830 -2.108920 -33.609265 15.756139 -71.800998 -5.627956 4.740815 40.440422 3.021859 9.875168 -17.861111 -1.534200 0.000000 -35.818300 8.089413 1.810401 3.196901 7.121009 -2.621480 -71.211438 4.589810 -2.981841 31.894906 2.318259 12.126044 0.064017 1.650600 0.000000 -70.989800
2.888859 16.293095 1.360924 179.471663 -66.704489 -137.595544 -9.478027 3.304580 -2.091862 -33.801313 15.544976 -72.096296 -5.641423 4.787534 40.636060 3.015532 9.784591 -17.943105 -1.540799 0.000000 -35.786800 8.065700 1.839643 3.219347 7.030137 -2.643784 -71.657108 4.584297 -3.034073 32.193033 2.322654 12.148819 -0.055075 1.639900 -0.000001 -70.958400
